<?xml version="1.0" encoding="utf-8"?>
<!-- Generator: Adobe Illustrator 25.2.3, SVG Export Plug-In . SVG Version: 6.00 Build 0)  -->
<svg version="1.1" xmlns="http://www.w3.org/2000/svg" xmlns:xlink="http://www.w3.org/1999/xlink" x="0px" y="0px"
	 viewBox="0 0 100 100" style="enable-background:new 0 0 100 100;" xml:space="preserve">
<style type="text/css">
	.st0{display:none;}
	.st1{display:inline;fill:#44C2E4;}
	.st2{display:inline;fill:#E6C705;}
	.st3{fill:#44C2E4;}
	.st4{fill:#E6C705;}
	.st5{display:inline;fill:#3591A6;}
</style>
<g id="Слой_1" class="st0">
	<path id="XMLID_68_" class="st1" d="M24.2,60h52.9C85.9,60,93,52.9,93,44.2c0-5-2.3-9.5-6.2-12.6c-0.4-0.3-0.7-0.8-0.9-1.3
		C83.6,22.5,76.3,17,68,17c-1.5,0-3,0.2-4.5,0.5c-1,0.3-2.1-0.2-2.7-1C57.1,10.9,50.7,7.6,44,7.6c-5.1,0-10.1,1.9-13.8,5.4
		c-3.8,3.4-6.1,8.1-6.6,13.2c-0.1,0.9-0.6,1.6-1.4,2c-0.2,0.1-0.5,0.2-0.7,0.4c-0.2,0.1-0.4,0.2-0.7,0.3c-3.5,0.8-6.6,2.7-8.9,5.5
		c-2.3,2.8-3.5,6.3-3.5,9.9C8.3,52.9,15.5,60,24.2,60z"/>
</g>
<g id="Слой_2" class="st0">
	<path id="XMLID_46_" class="st1" d="M87.9,44.2c-0.3-0.3-0.6-0.6-0.7-1.1c-1.9-6.4-7.9-11-14.6-11c-1.2,0-2.5,0.2-3.7,0.4
		c-0.8,0.2-1.7-0.1-2.2-0.8c-3.1-4.6-8.3-7.3-13.8-7.3c-4.2,0-8.2,1.6-11.3,4.4c-3.1,2.8-5,6.6-5.4,10.8c-0.1,0.7-0.5,1.3-1.2,1.6
		c-0.2,0.1-0.4,0.2-0.6,0.3c-0.2,0.1-0.4,0.2-0.5,0.2c-2.8,0.6-5.4,2.2-7.2,4.5c-1.9,2.3-2.9,5.1-2.9,8.1c0,7.1,5.8,12.9,13,12.9H80
		c7.2,0,13-5.8,13-12.9C93,50.4,91.1,46.7,87.9,44.2z"/>
	<path id="XMLID_45_" class="st2" d="M23.9,34.1c0,2.5,0.9,5,2.6,6.8c1.7-1.3,3.7-2.3,5.8-2.9c0.7-4.7,3-8.9,6.5-12.1
		c0.2-0.2,0.3-0.3,0.5-0.4C37.8,24.5,36,24,34,24C28.4,24,23.9,28.5,23.9,34.1z"/>
	<path id="XMLID_44_" class="st2" d="M34,18.5c1.1,0,2-0.9,2-2v-5.7c0-1.1-0.9-2-2-2c-1.1,0-2,0.9-2,2v5.7
		C32,17.6,32.9,18.5,34,18.5z"/>
	<path id="XMLID_43_" class="st2" d="M23.5,19.9c0.4,0.7,1.1,1,1.8,1c0.3,0,0.7-0.1,1-0.3c1-0.6,1.3-1.8,0.7-2.8l-2.9-5
		c-0.6-1-1.8-1.3-2.8-0.7c-1,0.6-1.3,1.8-0.7,2.8L23.5,19.9z"/>
	<path id="XMLID_42_" class="st2" d="M12.8,24.2l5,2.9c0.3,0.2,0.7,0.3,1,0.3c0.7,0,1.4-0.4,1.8-1c0.6-1,0.2-2.2-0.7-2.8l-5-2.9
		c-1-0.6-2.2-0.2-2.8,0.7C11.5,22.4,11.8,23.6,12.8,24.2z"/>
	<path id="XMLID_41_" class="st2" d="M10.7,36.2h5.7c1.1,0,2-0.9,2-2c0-1.1-0.9-2-2-2h-5.7c-1.1,0-2,0.9-2,2
		C8.6,35.2,9.5,36.2,10.7,36.2z"/>
	<path id="XMLID_39_" class="st2" d="M20.5,41.9c-0.6-1-1.8-1.3-2.8-0.7l-5,2.9c-1,0.6-1.3,1.8-0.7,2.8c0.4,0.7,1.1,1,1.8,1
		c0.3,0,0.7-0.1,1-0.3l5-2.9C20.8,44.1,21.1,42.9,20.5,41.9z"/>
	<path id="XMLID_38_" class="st2" d="M41.8,20.6c0.3,0.2,0.7,0.3,1,0.3c0.7,0,1.4-0.4,1.8-1l2.9-5c0.6-1,0.2-2.2-0.7-2.8
		c-1-0.6-2.2-0.2-2.8,0.7l-2.9,5C40.5,18.8,40.9,20,41.8,20.6z"/>
</g>
<g id="Слой_3">
	<path id="XMLID_69_" class="st3" d="M33.5,55.8L44.6,23h14.1l-8.2,22.2h17L57.1,61H77c8.8,0,16-7.1,16-15.9c0-5-2.3-9.6-6.3-12.6
		c-0.4-0.3-0.7-0.8-0.9-1.3c-2.3-7.9-9.7-13.5-17.9-13.5c-1.5,0-3,0.2-4.5,0.5c-1,0.3-2.1-0.2-2.7-1c-3.9-5.6-10.2-8.9-17-8.9
		c-5.2,0-10.1,1.9-13.9,5.4c-3.8,3.5-6.1,8.2-6.6,13.2c-0.1,0.9-0.6,1.6-1.4,2c-0.2,0.1-0.5,0.2-0.7,0.4c-0.2,0.1-0.4,0.2-0.7,0.3
		c-3.5,0.8-6.6,2.7-8.9,5.5C9.2,38,8,41.4,8,45.1c0,8.7,7.2,15.9,16,15.9h23.2l1.3-5.2H33.5z"/>
	<polygon id="XMLID_40_" class="st4" points="50.5,45.1 58.7,23 44.6,23 33.5,55.8 48.4,55.8 47.1,61 45.9,66 40.9,85.7 53.8,66 
		57.1,61 67.5,45.1 	"/>
</g>
<g id="Слой_4" class="st0">
	<path id="XMLID_18_" class="st1" d="M39.5,42.3c0-8.4,7.6-15.3,17-15.3c2,0,4,0.3,5.8,0.9c1.9-2,4.4-3.4,7.2-4.1
		c-2.5-5-7.6-8.3-13.4-8.3c-1.2,0-2.4,0.1-3.6,0.4c-0.9,0.2-1.8-0.1-2.3-0.9c-3.1-4.5-8.1-7.1-13.6-7.1c-4.1,0-8.1,1.5-11.1,4.3
		c-3,2.8-4.9,6.5-5.3,10.6c-0.1,0.7-0.5,1.4-1.2,1.7c-0.2,0.1-0.4,0.2-0.6,0.3c-0.2,0.1-0.4,0.2-0.6,0.2c-2.8,0.6-5.3,2.2-7.1,4.4
		C9,31.7,8,34.5,8,37.4c0,7,5.7,12.6,12.7,12.6H36c0.4-2.6,1.6-5,3.5-7.1C39.5,42.7,39.5,42.5,39.5,42.3z"/>
	<path id="XMLID_17_" class="st1" d="M26.8,82.5c0.2,0,0.4,0,0.6-0.1c1.1-0.3,1.8-1.5,1.4-2.7l-2.6-8.4c-0.3-1.1-1.5-1.8-2.7-1.4
		c-1.1,0.3-1.8,1.5-1.4,2.7l2.6,8.4C25,81.9,25.9,82.5,26.8,82.5z"/>
	<path id="XMLID_16_" class="st1" d="M44.7,82.5c0.2,0,0.4,0,0.6-0.1c1.1-0.3,1.8-1.5,1.4-2.7l-2.6-8.4c-0.3-1.1-1.5-1.8-2.7-1.4
		c-1.1,0.3-1.8,1.5-1.4,2.7l2.6,8.4C42.9,81.9,43.8,82.5,44.7,82.5z"/>
	<path id="XMLID_15_" class="st1" d="M62.6,82.5c0.2,0,0.4,0,0.6-0.1c1.1-0.3,1.8-1.5,1.4-2.7l-2.6-8.4c-0.3-1.1-1.5-1.8-2.7-1.4
		c-1.1,0.3-1.8,1.5-1.4,2.7l2.6,8.4C60.9,81.9,61.7,82.5,62.6,82.5z"/>
	<path id="XMLID_14_" class="st5" d="M85.7,42.6c-1.1-0.4-1.7-1.6-1.3-2.7c0.3-0.9,0.5-1.9,0.5-2.8c0-4.1-3-7.5-7.1-8.9
		c-1.2-0.4-2.6-0.6-3.9-0.6c-0.7,0-1.4,0.1-2.1,0.2c-2.9,0.5-5.4,1.9-7.1,4.1c-0.6,0.8-1.6,1-2.5,0.7c-1.8-0.8-3.7-1.1-5.6-1.1
		c-7,0-12.7,4.9-12.7,11c0,0.4,0,0.8,0.1,1.2c0.1,0.7-0.2,1.3-0.6,1.8c-1.4,1.4-2.4,3-2.8,4.8c-0.2,0.7-0.3,1.4-0.3,2.1
		c0,0.7,0.1,1.5,0.3,2.2c1.2,4.6,5.9,8.1,11.7,8.1h29c6.6,0,11.9-4.6,11.9-10.3C93,48,90.1,44.3,85.7,42.6z"/>
</g>
<g id="Слой_5" class="st0">
	
		<ellipse id="XMLID_66_" transform="matrix(0.9821 -0.1882 0.1882 0.9821 -8.5737 10.384)" class="st2" cx="50.4" cy="50.3" rx="21.2" ry="21.2"/>
	<path id="XMLID_34_" class="st2" d="M48.1,19.5c0,1.2,1,2.3,2.3,2.3c1.2,0,2.3-1,2.3-2.3V10c0-1.2-1-2.3-2.3-2.3
		c-1.2,0-2.3,1-2.3,2.3V19.5z"/>
	<path id="XMLID_33_" class="st2" d="M48.1,81.1v9.6c0,1.2,1,2.3,2.3,2.3c1.2,0,2.3-1,2.3-2.3v-9.6c0-1.2-1-2.3-2.3-2.3
		C49.1,78.9,48.1,79.9,48.1,81.1z"/>
	<path id="XMLID_32_" class="st2" d="M35,25.9c0.4,0,0.8-0.1,1.1-0.3c1.1-0.6,1.4-2,0.8-3.1l-4.8-8.3c-0.6-1.1-2-1.4-3.1-0.8
		c-1.1,0.6-1.4,2-0.8,3.1l4.8,8.3C33.5,25.5,34.2,25.9,35,25.9z"/>
	<path id="XMLID_31_" class="st2" d="M64.7,75.1c-1.1,0.6-1.4,2-0.8,3.1l4.8,8.3c0.4,0.7,1.2,1.1,2,1.1c0.4,0,0.8-0.1,1.1-0.3
		c1.1-0.6,1.4-2,0.8-3.1l-4.8-8.3C67.1,74.8,65.7,74.4,64.7,75.1z"/>
	<path id="XMLID_30_" class="st2" d="M13.5,29c-0.6,1.1-0.3,2.5,0.8,3.1l8.3,4.8c0.4,0.2,0.7,0.3,1.1,0.3c0.8,0,1.5-0.4,2-1.1
		c0.6-1.1,0.3-2.5-0.8-3.1l-8.3-4.8C15.5,27.6,14.1,28,13.5,29z"/>
	<path id="XMLID_29_" class="st2" d="M86.5,68.6l-8.3-4.8c-1.1-0.6-2.5-0.3-3.1,0.8c-0.6,1.1-0.3,2.5,0.8,3.1l8.3,4.8
		c0.4,0.2,0.7,0.3,1.1,0.3c0.8,0,1.5-0.4,2-1.1C87.9,70.6,87.5,69.2,86.5,68.6z"/>
	<path id="XMLID_28_" class="st2" d="M21.9,50.3c0-1.2-1-2.3-2.3-2.3H10c-1.2,0-2.3,1-2.3,2.3c0,1.2,1,2.3,2.3,2.3h9.6
		C20.8,52.6,21.9,51.6,21.9,50.3z"/>
	<path id="XMLID_27_" class="st2" d="M90.7,48.1h-9.6c-1.2,0-2.3,1-2.3,2.3c0,1.2,1,2.3,2.3,2.3h9.6c1.2,0,2.3-1,2.3-2.3
		C93,49.1,92,48.1,90.7,48.1z"/>
	<path id="XMLID_26_" class="st2" d="M22.6,63.8l-8.3,4.8c-1.1,0.6-1.4,2-0.8,3.1c0.4,0.7,1.2,1.1,2,1.1c0.4,0,0.8-0.1,1.1-0.3
		l8.3-4.8c1.1-0.6,1.4-2,0.8-3.1C25.1,63.5,23.7,63.2,22.6,63.8z"/>
	<path id="XMLID_25_" class="st2" d="M84.2,28.2L75.9,33c-1.1,0.6-1.4,2-0.8,3.1c0.4,0.7,1.2,1.1,2,1.1c0.4,0,0.8-0.1,1.1-0.3
		l8.3-4.8c1.1-0.6,1.4-2,0.8-3.1C86.7,28,85.3,27.6,84.2,28.2z"/>
	<path id="XMLID_24_" class="st2" d="M33,75.9l-4.8,8.3c-0.6,1.1-0.3,2.5,0.8,3.1c0.4,0.2,0.7,0.3,1.1,0.3c0.8,0,1.5-0.4,2-1.1
		l4.8-8.3c0.6-1.1,0.3-2.5-0.8-3.1C35,74.4,33.7,74.8,33,75.9z"/>
	<path id="XMLID_23_" class="st2" d="M64.7,25.6c0.4,0.2,0.7,0.3,1.1,0.3c0.8,0,1.5-0.4,2-1.1l4.8-8.3c0.6-1.1,0.3-2.5-0.8-3.1
		c-1.1-0.6-2.5-0.3-3.1,0.8l-4.8,8.3C63.2,23.6,63.6,25,64.7,25.6z"/>
</g>
</svg>
