<?xml version="1.0" encoding="utf-8"?>
<!-- Generator: Adobe Illustrator 25.2.3, SVG Export Plug-In . SVG Version: 6.00 Build 0)  -->
<svg version="1.1" id="Слой_1" xmlns="http://www.w3.org/2000/svg" xmlns:xlink="http://www.w3.org/1999/xlink" x="0px" y="0px"
	 viewBox="0 0 100 100" style="enable-background:new 0 0 100 100;" xml:space="preserve">
<style type="text/css">
	.st0{fill:#EBEBEB;}
	.st1{fill:#FF7302;}
	.st2{fill:none;stroke:#FF7302;stroke-width:2;stroke-miterlimit:10;}
</style>
<g id="Слой_1_1_">
	<g>
		<circle class="st0" cx="50" cy="50" r="49.5"/>
		<path class="st0" d="M50,1c27,0,49,22,49,49S77,99,50,99S1,77,1,50S23,1,50,1 M50,0C22.4,0,0,22.4,0,50s22.4,50,50,50
			s50-22.4,50-50S77.6,0,50,0L50,0z"/>
	</g>
</g>
<g id="Слой_2_1_">
	<g>
		<path class="st1" d="M50,80.5c0,0.3-0.2,0.5-0.5,0.5l0,0c-0.3,0-0.5-0.2-0.5-0.5V19c0-0.3,0.2-0.5,0.5-0.5l0,0
			c0.3,0,0.5,0.2,0.5,0.5V80.5z"/>
		<path class="st2" d="M50,80.5c0,0.3-0.2,0.5-0.5,0.5l0,0c-0.3,0-0.5-0.2-0.5-0.5V19c0-0.3,0.2-0.5,0.5-0.5l0,0
			c0.3,0,0.5,0.2,0.5,0.5V80.5z"/>
	</g>
	<g>
		<path class="st1" d="M48.9,18.4c0.2-0.2,0.5-0.2,0.7,0s0.2,0.5,0,0.7L28.7,40.6c-0.2,0.2-0.5,0.2-0.7,0s-0.2-0.5,0-0.7L48.9,18.4z
			"/>
		<path class="st2" d="M48.9,18.4c0.2-0.2,0.5-0.2,0.7,0s0.2,0.5,0,0.7L28.7,40.6c-0.2,0.2-0.5,0.2-0.7,0s-0.2-0.5,0-0.7L48.9,18.4z
			"/>
	</g>
	<g>
		<path class="st1" d="M49.9,18.5c-0.2-0.2-0.5-0.2-0.7,0s-0.2,0.5,0,0.7l20.5,21.9c0.2,0.2,0.5,0.2,0.7,0l0,0
			c0.2-0.2,0.2-0.5,0-0.7L49.9,18.5z"/>
		<path class="st2" d="M49.9,18.5c-0.2-0.2-0.5-0.2-0.7,0s-0.2,0.5,0,0.7l20.5,21.9c0.2,0.2,0.5,0.2,0.7,0l0,0
			c0.2-0.2,0.2-0.5,0-0.7L49.9,18.5z"/>
	</g>
</g>
</svg>
